<svg id="Layer_1" data-name="Layer 1" xmlns="http://www.w3.org/2000/svg" viewBox="0 0 420 420"><defs><style>.cls-1{fill:#fff;}.cls-2{fill:#cfcfcf;}</style></defs><title>Artboard 1</title><path class="cls-1" d="M420,210c0,116-94,210-210,210S0,326,0,210,94,0,210,0,420,94,420,210ZM210,120a90,90,0,1,0,90,90A90,90,0,0,0,210,120Z"/><path class="cls-2" d="M210,10C99.54,10,10,99.54,10,210S99.54,410,210,410s200-89.54,200-200S320.46,10,210,10Zm0,100A100,100,0,1,1,110,210,100,100,0,0,1,210,110ZM329.32,329.32A168.75,168.75,0,1,1,90.68,90.68l26.52,26.52h0C66,168.37,66,251.63,117.19,302.81a131.25,131.25,0,0,0,185.62,0c51.17-51.17,51.17-134.44,0-185.62l26.52-26.52a168.75,168.75,0,0,1,0,238.65Z"/></svg>